#!OML:ASF F:\VICON\USERDATA\INSTALL\rory3\rory3.ASF
:FULLY-SPECIFIED
:DEGREES
294
root 6.98938 17.5 29.3009 20.1641 -86.7064 -14.9992
lowerback 37.7439 2.38079 3.99953
upperback 8.6391 4.05189 6.54599
thorax -9.21859 1.25946 3.37213
lowerneck -14.544 -1.13162 -0.274264
upperneck 7.00516 -0.465429 -11.6439
head 4.47543 -1.0638 -3.63194
rclavicle 2.8625e-014 5.725e-014
rhumerus -8.19145 -54.4156 -59.4215
rradius 37.6945
rwrist -34.2777
rhand -11.4767 -3.96367
rfingers 7.12502
rthumb 14.5613 -33.4326
lclavicle 2.8625e-014 5.725e-014
lhumerus -45.5585 0.219558 82.7493
lradius 52.9883
lwrist 13.1478
lhand -17.4027 50.0023
lfingers 7.12502
lthumb 8.84671 79.7968
rfemur -28.4262 4.0143 2.90125
rtibia 54.7503
rfoot -9.71045 -15.5691
rtoes 16.9068
lfemur -32.2532 2.11679 -20.1471
ltibia 49.5378
lfoot -15.3678 -0.593688
ltoes -21.801
295
root 7.01794 17.5766 29.5016 15.7427 -86.3042 -10.5273
lowerback 37.6056 2.2133 4.07411
upperback 8.67425 3.85416 6.43688
thorax -9.1059 1.17513 3.2964
lowerneck -14.5583 -1.10917 -0.0622716
upperneck 6.9265 -0.455984 -11.9848
head 4.45492 -1.0745 -3.77274
rclavicle -1.74931e-014 -2.70347e-014
rhumerus -9.31536 -55.2021 -58.2795
rradius 38.5815
rwrist -36.6285
rhand -9.99817 -3.33314
rfingers 7.12502
rthumb 15.9854 -32.6936
lclavicle -1.74931e-014 -2.70347e-014
lhumerus -45.3111 0.615597 82.1546
lradius 52.1972
lwrist 13.2734
lhand -17.2824 50.3623
lfingers 7.12502
lthumb 8.96283 80.1519
rfemur -28.9827 2.79632 4.13272
rtibia 56.2907
rfoot -11.4472 -15.6348
rtoes 22.0603
lfemur -32.0973 1.93762 -21.0487
ltibia 48.8968
lfoot -14.3183 -1.49173
ltoes -20.6697
296
root 7.0546 17.6565 29.683 12.0779 -85.9059 -6.85627
lowerback 37.6173 2.11635 3.88901
upperback 8.63732 3.67868 6.42052
thorax -9.15799 1.10078 3.44414
lowerneck -14.524 -1.05323 -0.245
upperneck 6.96323 -0.333781 -12.1328
head 4.47062 -1.03232 -3.7804
rclavicle 1.43125e-014 1.90833e-014
rhumerus -11.1427 -55.1026 -56.785
rradius 39.8513
rwrist -38.372
rhand -8.74946 -2.77529
rfingers 7.12502
rthumb 17.1876 -32.0351
lclavicle 1.43125e-014 1.90833e-014
lhumerus -45.1354 1.60969 81.457
lradius 51.2981
lwrist 12.9195
lhand -16.8682 50.6372
lfingers 7.12502
lthumb 9.36256 80.4092
rfemur -29.4552 1.25218 5.66362
rtibia 57.7442
rfoot -12.098 -16.26
rtoes 21.5719
lfemur -31.9888 2.19823 -21.8201
ltibia 48.3163
lfoot -12.9613 -3.25704
ltoes -17.3857
297
root 7.09114 17.7385 29.8594 11.0509 -85.4558 -5.94537
lowerback 37.7536 2.09346 3.86791
upperback 8.64994 3.65572 6.47908
thorax -9.19729 1.08778 3.52616
lowerneck -14.4031 -1.13298 -0.535887
upperneck 6.81794 -0.417291 -12.0669
head 4.40198 -1.06922 -3.71397
rclavicle -9.54166e-015 3.18055e-015
rhumerus -13.2778 -54.705 -54.8991
rradius 40.9928
rwrist -39.8404
rhand -7.37319 -2.21936
rfingers 7.12502
rthumb 18.5119 -31.3585
lclavicle -9.54166e-015 3.18055e-015
lhumerus -44.7772 2.0944 81.043
lradius 50.4945
lwrist 12.761
lhand -16.5015 51.2167
lfingers 7.12502
lthumb 9.71634 80.9726
rfemur -29.8149 -0.593807 7.48299
rtibia 59.0573
rfoot -12.3449 -16.6843
rtoes 19.3537
lfemur -31.7982 2.75124 -22.4264
ltibia 47.7896
lfoot -11.2655 -4.93877
ltoes -15.1328
298
root 7.12621 17.8285 30.0543 6.85203 -84.9328 -1.50772
lowerback 37.5438 1.9304 3.84525
upperback 8.62205 3.44194 6.37198
thorax -9.13857 1.00226 3.5085
lowerneck -14.3783 -1.10729 -0.629598
upperneck 6.76098 -0.366558 -12.1562
head 4.38477 -1.05086 -3.72167
rclavicle 3.97569e-014 4.29375e-014
rhumerus -14.4424 -55.1306 -53.6114
rradius 41.4762
rwrist -39.6817
rhand -5.4587 -1.49888
rfingers 7.12502
rthumb 20.3526 -30.4524
lclavicle 3.97569e-014 4.29375e-014
lhumerus -44.4946 2.55903 80.6708
lradius 49.9713
lwrist 12.7117
lhand -16.0813 51.8946
lfingers 7.12502
lthumb 10.1218 81.6311
rfemur -30.5101 -1.85803 8.83751
rtibia 60.2493
rfoot -13.0295 -17.2541
rtoes 19.5121
lfemur -31.9569 3.27699 -23.5114
ltibia 47.2998
lfoot -9.43369 -6.38839
ltoes -13.3029
299
root 7.16722 17.9129 30.2533 2.7394 -84.5173 3.01909
lowerback 37.2234 1.76124 3.85965
upperback 8.56402 3.22439 6.14293
thorax -9.06189 0.920497 3.34148
lowerneck -14.4456 -1.07231 -0.737305
upperneck 6.72167 -0.299116 -12.1803
head 4.38887 -1.0236 -3.70706
rclavicle 1.59028e-014 1.11319e-014
rhumerus -15.3577 -56.1027 -52.6339
rradius 42.0716
rwrist -39.1454
rhand -3.16378 -1.31344
rfingers 7.12502
rthumb 22.5568 -30.0157
lclavicle 1.59028e-014 1.11319e-014
lhumerus -44.249 3.0821 80.2088
lradius 49.6317
lwrist 12.541
lhand -15.9366 52.2703
lfingers 7.12502
lthumb 10.2613 82
rfemur -31.4852 -3.74459 10.1521
rtibia 61.329
rfoot -12.8414 -17.3165
rtoes 18.0734
lfemur -32.3988 4.16111 -24.6947
ltibia 46.8577
lfoot -7.11549 -7.98458
ltoes -5.4666
300
root 7.21195 17.9994 30.4472 1.47655 -84.0336 4.47589
lowerback 37.2411 1.64843 4.16175
upperback 8.49951 3.19587 5.94515
thorax -9.10095 0.91268 2.98189
lowerneck -14.6312 -1.15334 -0.660743
upperneck 6.76089 -0.412304 -12.142
head 4.42374 -1.08098 -3.72006
rclavicle -5.88403e-014 -6.52014e-014
rhumerus -16.7069 -56.8845 -51.2565
rradius 42.7634
rwrist -39.3093
rhand 4.80556 -6.08297
rfingers 7.12502
rthumb 30.1845 -33.6367
lclavicle -5.88403e-014 -6.52014e-014
lhumerus -43.9446 3.41875 79.7836
lradius 49.4164
lwrist 12.3114
lhand -16.889 52.7722
lfingers 7.12502
lthumb 9.34241 82.5452
rfemur -32.1589 -5.67872 11.774
rtibia 62.1845
rfoot -12.5949 -17.0092
rtoes 17.6956
lfemur -32.6541 5.06996 -25.4517
ltibia 46.3926
lfoot -4.35193 -9.81608
ltoes 1.72121
301
root 7.25248 18.096 30.6225 0.454208 -83.339 5.78218
lowerback 37.1268 1.59642 4.28449
upperback 8.46931 3.17805 5.83132
thorax -9.07619 0.914033 2.80231
lowerneck -14.8403 -1.1602 -0.716304
upperneck 6.69859 -0.414374 -12.0473
head 4.4386 -1.08049 -3.6838
rclavicle -2.06736e-014 -1.74931e-014
rhumerus -17.949 -57.9657 -49.8841
rradius 43.3806
rwrist -39.5437
rhand 10.4332 -9.23908
rfingers 7.12502
rthumb 35.5371 -35.668
lclavicle -2.06736e-014 -1.74931e-014
lhumerus -43.5258 3.50765 79.5315
lradius 49.3108
lwrist 12.2949
lhand -17.7128 53.3436
lfingers 7.12502
lthumb 8.54747 83.1506
rfemur -32.8587 -7.25405 13.4632
rtibia 62.8657
rfoot -12.4064 -16.6755
rtoes 16.603
lfemur -32.9772 5.73269 -26.0667
ltibia 45.8792
lfoot -1.19665 -12.1913
ltoes 0.454443
302
root 7.2863 18.1991 30.7808 -0.891063 -82.5274 7.5731
lowerback 36.749 1.62047 4.16167
upperback 8.47643 3.15967 5.79525
thorax -8.94071 0.923356 2.83536
lowerneck -14.9496 -1.26958 -0.288951
upperneck 6.50019 -0.641666 -12.2896
head 4.37978 -1.19096 -3.84659
rclavicle -2.70347e-014 -2.06736e-014
rhumerus -19.0401 -58.4024 -48.6146
rradius 44.1853
rwrist -40.6224
rhand -0.391058 1.11046
rfingers 7.12502
rthumb 25.2158 -27.2436
lclavicle -2.70347e-014 -2.06736e-014
lhumerus -43.108 3.51436 79.3897
lradius 49.3979
lwrist 12.4058
lhand -17.9268 53.4503
lfingers 7.12502
lthumb 8.34094 83.2656
rfemur -33.6985 -8.31617 15.1024
rtibia 63.4028
rfoot -12.1657 -16.3724
rtoes 15.1009
lfemur -33.4202 6.13213 -26.5906
ltibia 45.2933
lfoot 2.58903 -14.3365
ltoes 0.918854
303
root 7.31871 18.2892 30.937 0.253721 -81.8918 6.73839
lowerback 36.3959 1.67586 4.06467
upperback 8.58156 3.18393 5.94223
thorax -8.71722 0.942072 3.0359
lowerneck -15.205 -1.25353 0.0688324
upperneck 6.3789 -0.661941 -12.6982
head 4.38314 -1.22297 -4.0392
rclavicle -1.43125e-014 4.77083e-015
rhumerus -19.5385 -57.5311 -47.8083
rradius 44.9891
rwrist -42.3893
rhand 0.0204947 0.932393
rfingers 7.12502
rthumb 25.61 -27.3655
lclavicle -1.43125e-014 4.77083e-015
lhumerus -42.6849 3.70032 79.2916
lradius 49.5695
lwrist 12.765
lhand -18.4889 53.4924
lfingers 7.12502
lthumb 7.79847 83.3286
rfemur -34.3573 -9.12609 17.0592
rtibia 63.7372
rfoot -11.9145 -15.6081
rtoes 13.3351
lfemur -33.6873 6.49112 -26.4773
ltibia 44.5419
lfoot 7.44641 -15.091
ltoes 8.05776
304
root 7.35368 18.3413 31.0962 1.40364 -81.387 5.85448
lowerback 36.2066 1.78662 3.80955
upperback 8.58855 3.25623 6.21357
thorax -8.68557 0.979842 3.43267
lowerneck -15.086 -1.1444 0.064359
upperneck 6.1399 -0.524074 -12.9872
head 4.30203 -1.16264 -4.11303
rclavicle -3.02153e-014 -5.725e-014
rhumerus -19.8466 -57.0406 -46.9126
rradius 45.8085
rwrist -43.064
rhand 0.868931 1.03539
rfingers 7.12502
rthumb 26.4224 -27.1431
lclavicle -3.02153e-014 -5.725e-014
lhumerus -42.4973 4.01071 79.4342
lradius 49.6782
lwrist 13.3119
lhand -19.3013 53.4527
lfingers 7.12502
lthumb 7.01433 83.3165
rfemur -35.0276 -9.77102 18.9298
rtibia 64.0301
rfoot -11.7131 -14.1745
rtoes 11.5601
lfemur -33.9136 6.31772 -26.0047
ltibia 43.6889
lfoot 12.6816 -13.8072
ltoes 15.0819
305
root 7.3791 18.4017 31.2725 3.17071 -80.8499 4.15494
lowerback 36.0325 1.6748 4.03175
upperback 8.7239 3.19089 6.39157
thorax -8.592 0.947312 3.49261
lowerneck -15.0198 -1.0716 -0.00711311
upperneck 5.96075 -0.431449 -13.0318
head 4.24363 -1.11262 -4.10392
rclavicle -3.18055e-014 -3.97569e-014
rhumerus -20.0462 -57.536 -46.266
rradius 46.8627
rwrist -42.4166
rhand 2.01122 1.06636
rfingers 7.12502
rthumb 27.5153 -26.9431
lclavicle -3.18055e-014 -3.97569e-014
lhumerus -42.3607 4.51849 79.5194
lradius 49.8815
lwrist 13.6973
lhand -19.8677 53.3928
lfingers 7.12502
lthumb 6.46757 83.2741
rfemur -35.3091 -10.4225 20.7497
rtibia 64.045
rfoot -10.9323 -12.2887
rtoes 8.47572
lfemur -33.7868 5.5715 -25.1246
ltibia 42.7158
lfoot 17.1623 -11.2424
ltoes 14.8917
306
root 7.41471 18.4537 31.4392 5.01978 -80.1451 2.57834
lowerback 35.7889 1.63337 4.11205
upperback 8.68865 3.20017 6.73432
thorax -8.56783 0.952323 3.8134
lowerneck -15.0095 -1.10247 -0.444016
upperneck 5.9275 -0.40863 -12.8837
head 4.23471 -1.10311 -3.98296
rclavicle 1.59028e-014 -4.13472e-014
rhumerus -20.1177 -57.6672 -45.3149
rradius 47.623
rwrist -41.3912
rhand 2.45993 1.73689
rfingers 7.12502
rthumb 27.9444 -26.2035
lclavicle 1.59028e-014 -4.13472e-014
lhumerus -42.204 5.12915 79.7199
lradius 50.1044
lwrist 14.1473
lhand -19.5883 53.0873
lfingers 7.12502
lthumb 6.73728 82.9601
rfemur -35.7961 -11.1908 22.5815
rtibia 63.9352
rfoot -9.91101 -9.79073
rtoes 4.37499
lfemur -33.9963 4.79416 -24.1086
ltibia 41.8241
lfoot 20.6825 -9.19882
ltoes 4.71066
307
root 7.44152 18.5067 31.6171 7.03222 -79.4601 0.698117
lowerback 35.9697 1.22989 4.82769
upperback 8.4061 2.99891 6.6068
thorax -8.87412 0.856556 3.37776
lowerneck -14.9009 -1.09504 -1.02869
upperneck 6.12806 -0.318801 -12.1456
head 4.2815 -1.0276 -3.64825
rclavicle -2.22639e-014 -1.74931e-014
rhumerus -20.5626 -55.2764 -44.0744
rradius 47.9243
rwrist -41.8824
rhand 2.06514 2.47989
rfingers 7.12502
rthumb 27.5669 -25.5214
lclavicle -2.22639e-014 -1.74931e-014
lhumerus -42.5436 5.43704 79.3694
lradius 50.6073
lwrist 14.5354
lhand -18.7656 52.9048
lfingers 7.12502
lthumb 7.53145 82.7507
rfemur -35.9788 -11.7656 24.2528
rtibia 63.5915
rfoot -8.91187 -6.75256
rtoes 2.67622
lfemur -34.1266 4.09639 -23.0383
ltibia 41.1387
lfoot 22.1315 -9.63325
ltoes -4.12626
